# xmcd
#
# Track frame offsets: 
#        150
#        17370
#        34554
#        47566
#        65430
#        81759
#        101997
#        119546
#        139959
#        155823
#        185234
#
# Disc length: 2748 seconds
#
# Revision: 4
# Processed by: cddbd v1.5.2PL0 Copyright (c) Steve Scherf et al.
# Submitted via: ExactAudioCopyFreeDBPlugin 1.0
#
DISCID=980aba0b
DTITLE=Khold - Mørke Gravers Kammer
DYEAR=2004
DGENRE=Black Metal
TTITLE0=Åtselgraver
TTITLE1=Død
TTITLE2=Niflheimr
TTITLE3=Hevnerske
TTITLE4=Med Nebb Og Klør
TTITLE5=Mørke Gravers Kammer
TTITLE6=Opera Seria
TTITLE7=Sjeleskjender
TTITLE8=Vardøger
TTITLE9=Kamp
TTITLE10=DATA
EXTD=
EXTT0=
EXTT1=
EXTT2=
EXTT3=
EXTT4=
EXTT5=
EXTT6=
EXTT7=
EXTT8=
EXTT9=
EXTT10=
PLAYORDER=
